<svg xmlns="http://www.w3.org/2000/svg" width="16" height="16" id="power"><path style="line-height:normal;text-indent:0;text-align:start;text-decoration-line:none;text-decoration-style:solid;text-decoration-color:#000;text-transform:none;block-progression:tb;white-space:normal;isolation:auto;mix-blend-mode:normal;solid-color:#000;solid-opacity:1" d="M8.496 1a.5.5 0 0 0-.492.508v4a.5.5 0 1 0 1 0v-4A.5.5 0 0 0 8.496 1zM6.518 2.31v.002a.5.5 0 0 0-.133.024 7 7 0 0 0-4.8 7.734 7 7 0 0 0 6.907 5.928 7.005 7.005 0 0 0 6.92-5.914A7 7 0 0 0 10.63 2.34a.5.5 0 0 0-.305.953 5.99 5.99 0 0 1 4.1 6.637 5.99 5.99 0 0 1-5.93 5.068 5.986 5.986 0 0 1-5.92-5.08 5.99 5.99 0 0 1 4.114-6.629.5.5 0 0 0-.17-.978z" color="#000" enable-background="accumulate" font-family="sans-serif" font-weight="400" overflow="visible"></path></svg>